<svg data-v-0dd9719b="" version="1.0" xmlns="http://www.w3.org/2000/svg" xmlns:xlink="http://www.w3.org/1999/xlink" width="100%" height="100%" viewBox="0 0 340.000000 250.000000" preserveAspectRatio="xMidYMid meet" color-interpolation-filters="sRGB" style="margin: auto;">   <g data-v-0dd9719b="" fill="#333" class="icon-text-wrapper icon-svg-group iconsvg" transform="translate(48.290000915527344,95.00180053710938)"><g class="iconsvg-imagesvg" transform="translate(0,0)"><g><rect fill="#333" fill-opacity="0" stroke-width="2" x="0" y="0" width="60" height="59.996400215987045" class="image-rect"></rect> <svg x="0" y="0" width="60" height="59.996400215987045" filtersec="colorsb1285069136" class="image-svg-svg primary" style="overflow: visible;"><svg xmlns="http://www.w3.org/2000/svg" viewBox="-0.007952146232128143 -0.0000725457794032991 100.01589965820312 100.0103530883789"><path d="M8.5 77.88a50 50 0 0 1 0-55.8 10 10 0 0 0 .8.91 9.72 9.72 0 0 0 2.52 1.82 45.76 45.76 0 0 0 0 50.36A9.72 9.72 0 0 0 9.3 77a11.28 11.28 0 0 0-.8.89m69.4 13.6a49.94 49.94 0 0 1-55.8 0 9.54 9.54 0 0 0 2.72-3.32 45.75 45.75 0 0 0 50.35 0A9.88 9.88 0 0 0 77 90.69a11.06 11.06 0 0 0 .9.79zm13.6-69.4a50 50 0 0 1 0 55.8 9.59 9.59 0 0 0-.8-.89 9.72 9.72 0 0 0-2.52-1.82 45.81 45.81 0 0 0 0-50.36A9.72 9.72 0 0 0 90.7 23a8.68 8.68 0 0 0 .8-.92zM50 0a49.76 49.76 0 0 1 27.9 8.5 11.06 11.06 0 0 0-.9.79 10.05 10.05 0 0 0-1.83 2.53 45.75 45.75 0 0 0-50.35 0A9.77 9.77 0 0 0 23 9.29a9.6 9.6 0 0 0-.9-.79A49.76 49.76 0 0 1 50 0z" fill="#333"></path><path d="M63.71 45.27l14.06 14.06a13 13 0 0 1-18.44 18.42L45.27 63.69 50 59l14.06 14a6.35 6.35 0 0 0 9-9L59 50z" fill="#ff9e01" opacity=".8"></path><path d="M40.67 22.23l14.06 14.06L50 41 35.94 27a6.35 6.35 0 0 0-9 9L41 50l-4.7 4.71-14.06-14.05a13 13 0 0 1 18.43-18.43" fill="#6800e8" opacity=".8"></path><path d="M45.27 36.29l14.06-14.06a13 13 0 0 1 18.44 18.43L63.71 54.71 59 50l14-14.07a6.35 6.35 0 0 0-9-9L50 41z" fill="#67edae" opacity=".8"></path><path d="M22.24 59.33L36.3 45.27 41 50 27 64.05a6.35 6.35 0 0 0 9 9L50 59l4.73 4.72-14.06 14.03a13 13 0 0 1-18.43-18.42" fill="#18d0fd" opacity=".8"></path><path d="M11.67 11.66a6.35 6.35 0 1 1 0 9 6.32 6.32 0 0 1 0-9" fill="#6800e8" fill-rule="evenodd"></path><path d="M11.67 88.32a6.35 6.35 0 1 1 9 0 6.33 6.33 0 0 1-9 0" fill="#18d0fd" fill-rule="evenodd"></path><path d="M88.34 88.32a6.35 6.35 0 1 1 0-9 6.33 6.33 0 0 1 0 9" fill="#ff9e01" fill-rule="evenodd"></path><path d="M88.34 11.66a6.35 6.35 0 1 1-9 0 6.35 6.35 0 0 1 9 0" fill="#67edae" fill-rule="evenodd"></path></svg></svg> <!----></g></g> <g transform="translate(67,3.341949462890625)"><g data-gra="path-name" fill-rule="" class="tp-name iconsvg-namesvg" transform="translate(0,0)"><g transform="scale(1)"><g><path d="M39.66-17.23L39.66-17.23 5.73-17.23Q3.91-17.23 3.91-19.07L3.91-19.07 3.91-31.18Q3.91-33 5.73-33L5.73-33 39.66-33Q41.48-33 41.48-31.18L41.48-31.18 41.48-19.07Q41.48-17.23 39.66-17.23ZM29.2-23.77L29.2-23.77 16.19-23.77Q14.41-23.77 14.41-22.3L14.41-22.3Q14.41-20.83 16.19-20.83L16.19-20.83 29.2-20.83Q31-20.83 31-22.3L31-22.3Q31-23.77 29.2-23.77ZM29.55-29.4L29.55-29.4 15.84-29.4Q14.41-29.4 14.41-28.23L14.41-28.23Q14.41-27.07 15.84-27.07L15.84-27.07 29.55-27.07Q30.98-27.07 30.98-28.23L30.98-28.23Q30.98-29.4 29.55-29.4ZM29.88-7.12L29.88-7.12 40.98-7.12Q42.8-7.12 42.8-5.52L42.8-5.52 42.8-5.12Q42.8-3.52 40.98-3.52L40.98-3.52 29.9-3.52Q28.08-3.52 28.08-1.85L28.08-1.85 28.08-1.12Q28.08 0.55 29.9 0.55L29.9 0.55 41.81 0.55Q43.64 0.55 43.64 2.2L43.64 2.2 43.64 2.79Q43.64 4.44 41.81 4.44L41.81 4.44 3.19 4.44Q1.36 4.44 1.36 2.79L1.36 2.79 1.36 2.2Q1.36 0.55 3.19 0.55L3.19 0.55 15.45 0.55Q17.27 0.55 17.27-1.12L17.27-1.12 17.27-1.85Q17.27-3.52 15.45-3.52L15.45-3.52 4.42-3.52Q2.57-3.52 2.57-5.12L2.57-5.12 2.57-5.52Q2.57-7.12 4.42-7.12L4.42-7.12 15.47-7.12Q17.27-7.12 17.27-8.61L17.27-8.61Q17.27-10.09 15.47-10.09L15.47-10.09 3.43-10.09Q2-10.09 2-11.18L2-11.18Q2-11.43 2.18-11.89L2.18-11.89 3.05-14.22Q3.38-15.07 3.82-15.36L3.82-15.36Q4.26-15.67 5.16-15.67L5.16-15.67 11.27-15.67Q12.17-15.67 12.17-14.96L12.17-14.96Q12.17-14.88 12.13-14.68L12.13-14.68Q12.11-14.52 12.11-14.39L12.11-14.39Q12.11-13.69 13.01-13.69L13.01-13.69 15.84-13.69Q17.14-13.69 17.27-14.85L17.27-14.85Q17.42-16.04 18.72-16.04L18.72-16.04 26.65-16.04Q27.95-16.04 28.08-14.85L28.08-14.85Q28.21-13.69 29.51-13.69L29.51-13.69 41.55-13.69Q43.37-13.69 43.37-12.08L43.37-12.08 43.37-11.69Q43.37-10.09 41.55-10.09L41.55-10.09 29.88-10.09Q28.08-10.09 28.08-8.59L28.08-8.59Q28.08-7.12 29.88-7.12ZM69.3-13.91L69.3-0.75 76.62-12.35Q77.15-13.18 77.63-13.45L77.63-13.45Q78.11-13.71 79.1-13.71L79.1-13.71 84.64-13.71Q85.8-13.71 85.8-12.77L85.8-12.77Q85.8-12.5 85.52-12.08L85.52-12.08 83.54-9.12 88.22 2.7Q88.42 3.19 88.42 3.43L88.42 3.43Q88.42 4.5 87.01 4.5L87.01 4.5 82.57 4.5Q81.67 4.5 81.23 4.2L81.23 4.2Q80.79 3.89 80.46 3.03L80.46 3.03 78.64-1.74 75.39 3.14Q74.84 3.98 74.36 4.24L74.36 4.24Q73.87 4.5 72.84 4.5L72.84 4.5 67.94 4.5 67.74 4.5 67.48 4.5 61.52 4.5Q59.7 4.5 59.7 2.68L59.7 2.68 59.7-14.35Q59.7-15.73 58.56-15.73L58.56-15.73Q57.44-15.73 57.44-14.35L57.44-14.35 57.44 2.68Q57.44 4.5 55.61 4.5L55.61 4.5 49.37 4.5Q47.53 4.5 47.53 2.68L47.53 2.68 47.53-31.14Q47.53-32.96 49.37-32.96L49.37-32.96 86.97-32.96Q88.79-32.96 88.79-31.27L88.79-31.27 88.79-30.45Q88.79-28.76 86.97-28.76L86.97-28.76 58.82-28.76Q57.44-28.76 57.44-27.62L57.44-27.62Q57.44-26.5 58.82-26.5L58.82-26.5 86.13-26.5Q87.96-26.5 87.96-24.85L87.96-24.85 87.96-24.26Q87.96-22.61 86.13-22.61L86.13-22.61 59.26-22.61Q57.44-22.61 57.44-21.12L57.44-21.12Q57.44-19.62 59.26-19.62L59.26-19.62 86.46-19.62Q88.29-19.62 88.29-17.97L88.29-17.97 88.29-17.38Q88.29-15.73 86.46-15.73L86.46-15.73 71.13-15.73Q69.3-15.73 69.3-13.91L69.3-13.91ZM129.97-28.92L129.97-28.92 131.97-28.92Q133.79-28.92 133.79-27.16L133.79-27.16 133.79-26.17Q133.79-24.41 131.97-24.41L131.97-24.41 129.97-24.41Q128.14-24.41 128.14-22.59L128.14-22.59 128.14-1.87Q128.14-0.04 129.97-0.04L129.97-0.04 132.01-0.04Q133.86-0.04 133.86 1.71L133.86 1.71 133.86 2.7Q133.86 4.46 132.01 4.46L132.01 4.46 112.32 4.46Q110.48 4.46 110.48 2.7L110.48 2.7 110.48 1.71Q110.48-0.04 112.32-0.04L112.32-0.04 115.82-0.04Q117.64-0.04 117.64-1.87L117.64-1.87 117.64-22.59Q117.64-24.41 115.82-24.41L115.82-24.41 114.52-24.41Q112.72-24.41 112.72-26.17L112.72-26.17 112.72-27.16Q112.72-28.92 114.52-28.92L114.52-28.92 115.82-28.92Q117.64-28.92 117.64-30.74L117.64-30.74 117.64-32.01Q117.64-33.84 119.49-33.84L119.49-33.84 126.32-33.84Q128.14-33.84 128.14-32.01L128.14-32.01 128.14-30.74Q128.14-28.92 129.97-28.92ZM107.45-21.95L107.45-21.95 111.51-19.12Q112.37-18.52 112.63-18.04L112.63-18.04Q112.87-17.56 112.87-16.52L112.87-16.52 112.87-13.71Q112.87-12.59 111.95-12.59L111.95-12.59Q111.67-12.59 111.27-12.85L111.27-12.85 109.89-13.84Q109.38-14.19 108.87-14.19L108.87-14.19Q107.4-14.19 107.4-12.37L107.4-12.37 107.4 2.64Q107.4 4.46 105.56 4.46L105.56 4.46 99.03 4.46Q97.19 4.46 97.19 2.64L97.19 2.64 97.19-9.43Q97.19-11.27 95.69-11.27L95.69-11.27Q95.14-11.27 94.53-10.74L94.53-10.74 92.72-9.14Q92.35-8.81 92.07-8.81L92.07-8.81Q91.25-8.81 91.25-9.82L91.25-9.82 91.25-13.73Q91.25-14.94 91.47-15.47L91.47-15.47Q91.71-16 92.59-16.79L92.59-16.79 99.58-23.16Q100.33-23.84 100.33-24.5L100.33-24.5Q100.33-25.99 98.48-25.99L98.48-25.99 93.1-25.99Q91.25-25.99 91.25-27.69L91.25-27.69 91.25-28.5Q91.25-30.19 93.1-30.19L93.1-30.19 95.21-30.19Q96.94-30.19 96.94-31.64L96.94-31.64Q96.94-31.82 96.88-32.04L96.88-32.04 96.83-32.19Q96.75-32.43 96.75-32.65L96.75-32.65Q96.75-33.86 98.24-33.86L98.24-33.86 104.46-33.86Q106.04-33.86 106.46-32.48L106.46-32.48 106.74-31.51Q107.14-30.19 108.59-30.19L108.59-30.19 110.26-30.19Q112.08-30.19 112.08-28.52L112.08-28.52 112.08-27.64Q112.08-26.81 111.84-26.28L111.84-26.28Q111.6-25.75 110.72-24.98L110.72-24.98 107.45-22.1Q107.4-22.06 107.4-22.04L107.4-22.04Q107.4-21.99 107.45-21.95ZM157.52-20.87L157.52-20.87 154.95-3.05Q154.71-1.41 153.04-1.41L153.04-1.41 149.28-1.41Q147.66-1.41 147.66-2.72L147.66-2.72Q147.66-2.99 147.7-3.27L147.7-3.27 150.29-19.36Q150.34-19.64 150.34-19.97L150.34-19.97Q150.34-20.5 150.01-20.9L150.01-20.9Q149.55-21.42 148.89-21.42L148.89-21.42 148.71-21.42Q147.13-21.42 147.13-23.07L147.13-23.07 147.13-23.66Q147.13-25.31 148.95-25.31L148.95-25.31 156.93-25.31Q158.36-25.31 158.49-26.59L158.49-26.59Q158.62-27.86 160.05-27.86L160.05-27.86 165.32-27.86Q166.88-27.86 166.88-26.59L166.88-26.59 166.88-26.26Q166.88-25.4 167.65-25.31L167.65-25.31Q168.4-25.22 168.4-24.39L168.4-24.39 168.4-22.35Q168.4-21.49 167.65-21.42L167.65-21.42Q166.88-21.34 166.88-20.48L166.88-20.48 166.88-2.77Q166.88-0.94 165.06-0.94L165.06-0.94 160.31-0.94Q158.49-0.94 158.49-2.77L158.49-2.77 158.49-20.87Q158.49-21.42 158.05-21.42L158.05-21.42Q157.61-21.42 157.52-20.87ZM177.78-31.09L177.78-31.09 177.78 2.68Q177.78 4.5 175.94 4.5L175.94 4.5 139.46 4.5Q137.61 4.5 137.61 2.68L137.61 2.68 137.61-31.09Q137.61-32.92 139.46-32.92L139.46-32.92 175.94-32.92Q177.78-32.92 177.78-31.09ZM166.95-28.72L166.95-28.72 148.45-28.72Q146.62-28.72 146.62-26.89L146.62-26.89 146.62-1.52Q146.62 0.31 148.45 0.31L148.45 0.31 166.95 0.31Q168.77 0.31 168.77-1.52L168.77-1.52 168.77-26.89Q168.77-28.72 166.95-28.72Z" transform="translate(-1.3600000143051147, 33.86000061035156)"></path></g> <!----> <!----> <!----> <!----> <!----> <!----> <!----></g></g> <g data-gra="path-slogan" fill-rule="" class="tp-slogan iconsvg-slogansvg" fill="#333" transform="translate(31.674175262451172,44.36000061035156)"><!----> <!----> <g transform="scale(1, 1)"><g transform="scale(1)"><path d="M7.17-6.09L7.17-6.09L6.09-6.09Q6-7.73 3.94-7.83L3.94-7.83Q2.02-7.78 2.02-6.33L2.02-6.33Q2.02-5.39 3.05-5.25L3.05-5.25L5.48-4.69Q7.41-4.22 7.41-2.34L7.41-2.34Q7.36 0.05 4.03 0.14L4.03 0.14Q2.20 0.14 1.45-0.61L1.45-0.61Q0.52-1.31 0.56-2.77L0.56-2.77L1.69-2.77Q1.73-0.80 4.03-0.75L4.03-0.75Q6.28-0.80 6.33-2.20L6.33-2.20Q6.52-3.38 4.45-3.75L4.45-3.75L2.67-4.13Q0.84-4.64 0.84-6.19L0.84-6.19Q0.98-8.72 3.84-8.81L3.84-8.81Q7.08-8.81 7.17-6.09ZM11.06-7.59L8.16-7.59L8.16-8.58L15.09-8.58L15.09-7.59L12.19-7.59L12.19 0L11.06 0L11.06-7.59ZM17.44-1.03L22.59-1.03L22.59 0L16.27 0L16.27-8.58L22.50-8.58L22.50-7.59L17.44-7.59L17.44-4.92L22.13-4.92L22.13-3.89L17.44-3.89L17.44-1.03ZM24.09-8.58L25.27-8.58L25.27-1.03L29.63-1.03L29.63 0L24.09 0L24.09-8.58ZM30.75-8.58L31.92-8.58L31.92-1.03L36.28-1.03L36.28 0L30.75 0L30.75-8.58ZM43.08 0L42.23-2.48L38.77-2.48L37.88 0L36.70 0L39.94-8.58L41.25-8.58L44.34 0L43.08 0ZM40.50-7.31L39.14-3.52L41.81-3.52L40.55-7.31L40.50-7.31ZM49.50-3.70L46.69-3.70L46.69 0L45.52 0L45.52-8.58L49.50-8.58Q52.36-8.58 52.36-6.28L52.36-6.28Q52.36-4.88 51.14-4.22L51.14-4.22Q52.17-3.94 52.17-2.58L52.17-2.58L52.27-1.03Q52.22-0.38 52.69-0.19L52.69-0.19L52.69 0L51.23 0Q51.09-0.61 51.05-2.16L51.05-2.16Q51.09-3.70 49.50-3.70L49.50-3.70ZM49.59-7.64L46.69-7.64L46.69-4.69L49.41-4.69Q51.14-4.69 51.14-6.19L51.14-6.19Q51.14-7.64 49.59-7.64L49.59-7.64ZM63 0L62.16-2.48L58.69-2.48L57.80 0L56.63 0L59.86-8.58L61.17-8.58L64.27 0L63 0ZM60.42-7.31L59.06-3.52L61.73-3.52L60.47-7.31L60.42-7.31ZM65.30-8.58L66.47-8.58L66.47-1.03L70.83-1.03L70.83 0L65.30 0L65.30-8.58ZM71.95-8.58L73.13-8.58L73.13-1.03L77.48-1.03L77.48 0L71.95 0L71.95-8.58ZM78.80-8.58L79.97-8.58L79.97 0L78.80 0L78.80-8.58ZM87.61 0L86.77-2.48L83.30-2.48L82.41 0L81.23 0L84.47-8.58L85.78-8.58L88.88 0L87.61 0ZM85.03-7.31L83.67-3.52L86.34-3.52L85.08-7.31L85.03-7.31ZM91.31-8.58L95.63-1.64L95.63-8.58L96.75-8.58L96.75 0L95.44 0L91.08-6.94L91.03-6.94L91.03 0L89.91 0L89.91-8.58L91.31-8.58ZM105.70-6.05L105.70-6.05L104.58-6.05Q104.16-7.78 102.19-7.83L102.19-7.83Q99.47-7.69 99.38-4.36L99.38-4.36Q99.38-0.80 102.23-0.80L102.23-0.80Q104.20-0.84 104.67-3.19L104.67-3.19L105.80-3.19Q105.28 0.05 102 0.14L102 0.14Q98.25 0 98.16-4.31L98.16-4.31Q98.34-8.63 102.19-8.81L102.19-8.81Q105.23-8.72 105.70-6.05ZM108.47-1.03L113.63-1.03L113.63 0L107.30 0L107.30-8.58L113.53-8.58L113.53-7.59L108.47-7.59L108.47-4.92L113.16-4.92L113.16-3.89L108.47-3.89L108.47-1.03Z" transform="translate(-0.5602678571428572, 8.8125)"></path></g></g></g></g></g><defs v-gra="od"></defs></svg>